<?xml version="1.0" encoding="UTF-8" standalone="no"?>
<!DOCTYPE svg PUBLIC "-//W3C//DTD SVG 1.1//EN" "http://www.w3.org/Graphics/SVG/1.1/DTD/svg11.dtd">
<svg width="46px" height="46px" viewBox="0 0 30 30" version="1.1" xmlns="http://www.w3.org/2000/svg" xmlns:xlink="http://www.w3.org/1999/xlink" xml:space="preserve" style="fill-rule:evenodd;clip-rule:evenodd;stroke-linejoin:round;stroke-miterlimit:1.41421;">
    <g id="logo__item--logo_0" transform="matrix(0.0172471,0,0,0.0172471,-1.60671,-2.07317)">
        <path d="M676.9,1179.7C715.9,1048.2 650.4,905.8 521,851.7C382.4,793.8 223.1,859.2 165.2,997.7C107.3,1136.3 172.7,1295.6 311.2,1353.5C379.8,1382.2 453.5,1380.6 517.5,1354.8C579.5,1356.6 667.8,1348 781.8,1310.4C783.5,1295.9 785.7,1281.1 788.7,1265.8C755.6,1247.9 712,1219.4 676.9,1179.7Z" style="fill:rgb(39,174,96);fill-rule:nonzero;"/>
        <path d="M1119.7,1011.1C1119.7,1011.1 1188.6,966.4 1268.4,960.1C1333.7,1048.2 1456.1,1074.8 1552.9,1018.2C1656.6,957.5 1691.4,824.3 1630.7,720.6C1570,616.9 1436.8,582.1 1333.1,642.8C1281.8,672.8 1247.4,720.7 1233,773.9C1197.1,818.9 1152.8,893.4 1119.7,1011.1Z" style="fill:rgb(52,152,219);fill-rule:nonzero;"/>
        <path d="M1767.6,1365.5C1760.8,1361.3 1738.8,1360.9 1738.8,1360.9L1722.6,1341.7C1722.6,1341.7 1499.9,1236.8 1489,1230.2C1478.2,1223.6 1454.4,1235.1 1454.4,1235.1C1452.5,1234.3 1450.5,1233.5 1448.6,1232.7C1197.8,1126.9 1037.2,945.8 1037.2,945.8L1036.1,948.9C1031.3,945.4 1026.2,942.4 1020.6,940.6C994.4,932.2 963.8,944.6 933.2,972C932,991 931.8,1009.1 932.3,1026C963.5,987.5 995.6,967.8 1021.3,976.1C1064.6,990 1076.5,1078.5 1054.2,1187.1L1004.7,1171C968.4,1159.2 929.4,1179.1 917.6,1215.4C905.8,1251.7 925.7,1290.7 962,1302.5L1012.7,1319C967.4,1424 904.6,1492.4 860.3,1478.2C807.8,1461.4 801.4,1335.4 845.9,1196.8C858.5,1157.6 873.8,1121.7 890.5,1090.6C880.4,1082.6 870.6,1074.6 861.2,1066.8C841.5,1101.8 823.6,1142.4 809.3,1186.9C800.6,1214 793.9,1240.6 789,1266.3C786.1,1281.5 783.8,1296.4 782.1,1310.9C770.2,1413.9 790,1494.5 838.1,1509.9C851.8,1514.3 866.7,1512.8 882.1,1506.8C925.4,1502.5 990.4,1481.5 1038.6,1466.9C1111.9,1444.7 1406.9,1456 1414.8,1455.2C1422.7,1454.5 1439.7,1472.3 1439.7,1472.3C1447.4,1474.2 1454.8,1476.1 1462,1477.8C1457,1493.7 1439.5,1552.1 1447.2,1560C1449.8,1562.7 1455.8,1567.2 1463.6,1572L1410.4,1761C1410.4,1761 1439.6,1815.5 1505.6,1774.6L1558.9,1585.4C1577.9,1577.1 1585.8,1566.1 1585.8,1566.1L1603.9,1501.9C1686.5,1508.9 1717.9,1495.7 1717.9,1495.7C1753.5,1504.5 1789,1464.8 1796.7,1434C1804.3,1402.9 1774.4,1369.6 1767.6,1365.5ZM1420.9,1249.9C1371.2,1246.8 1113.5,1088.5 1104.2,1085.3C1094.9,1082.2 1107.3,1054.2 1107.3,1054.2C1203.5,1141.3 1432,1250.6 1420.9,1249.9ZM1442.6,1777.8L1430.2,1768.5L1482.2,1587.7L1470.5,1588L1482.9,1588L1482.2,1587.7L1498.5,1589.9L1442.6,1777.8ZM1504.7,1489C1504.7,1489 1489.2,1548 1486.1,1557.3C1483,1566.6 1458.2,1554.2 1458.2,1554.2L1486.1,1482.8C1498.5,1479.7 1504.7,1489 1504.7,1489ZM1458.1,1423.8L1697.2,1451.7C1697.2,1451.7 1470.6,1439.3 1458.1,1423.8ZM1714,1386.5C1714,1386.5 1474.3,1308.9 1477.4,1299.6C1480.5,1290.3 1474.6,1249.9 1474.6,1249.9L1714,1364.8L1714,1386.5ZM1765.5,1408.3L1759.3,1374.1C1768.6,1374.1 1784.1,1405.2 1784.1,1405.2L1765.5,1408.3Z" style="fill:rgb(52,73,94);fill-rule:nonzero;"/>
        <path d="M890.3,1090.2C873.6,1121.3 858.3,1157.2 845.7,1196.4C801.2,1335 807.7,1461 860.1,1477.8C904.4,1492 967.2,1423.7 1012.5,1318.6L961.8,1302.1C925.5,1290.3 905.6,1251.3 917.4,1215C929.2,1178.7 968.2,1158.8 1004.5,1170.6L1054,1186.7C1076.3,1078.2 1064.4,989.6 1021.1,975.7C995.3,967.4 963.3,987.1 932.1,1025.6C933.8,1086.9 943.7,1130.7 943.7,1130.7C925,1117.2 907.3,1103.7 890.3,1090.2Z" style="fill:rgb(255,255,254);fill-rule:nonzero;"/>
        <path d="M943.8,1130.9C943.8,1130.9 933.9,1087.2 932.2,1025.8C931.7,1008.9 931.9,990.8 933.1,971.8C935.1,939.5 940,905 949.6,870.8C1124,820.1 1235.7,645.1 1203.3,462.3C1168.6,266.5 981.6,136 785.9,170.7C590.1,205.4 459.6,392.3 494.3,588.1C511.5,685.1 566.1,766.1 640.6,818.9C680.9,885.7 748.5,972.2 861,1066.4C870.4,1074.3 880.2,1082.3 890.3,1090.2C907.3,1103.7 925,1117.2 943.8,1130.9Z" style="fill:rgb(231,76,60);fill-rule:nonzero;"/>
        <path d="M1104.2,1085.4C1113.5,1088.5 1371.2,1246.9 1420.9,1250C1432.1,1250.7 1203.6,1141.3 1107.3,1054.4C1107.3,1054.3 1094.9,1082.3 1104.2,1085.4Z" style="fill:rgb(255,255,254);fill-rule:nonzero;"/>
        <path d="M1477.4,1299.6C1474.3,1308.9 1714,1386.5 1714,1386.5L1714,1364.8L1474.6,1249.9C1474.6,1249.9 1480.5,1290.3 1477.4,1299.6Z" style="fill:rgb(255,255,254);fill-rule:nonzero;"/>
        <path d="M1486.1,1482.8L1458.2,1554.2C1458.2,1554.2 1483,1566.6 1486.1,1557.3C1489.2,1548 1504.7,1489 1504.7,1489C1504.7,1489 1498.5,1479.7 1486.1,1482.8Z" style="fill:rgb(255,255,254);fill-rule:nonzero;"/>
        <path d="M1470.6,1582L1482.2,1584.6L1483,1582L1470.6,1582Z" style="fill:rgb(255,255,254);fill-rule:nonzero;"/>
        <path d="M1430.2,1768.5L1442.6,1777.8L1498.5,1588.4L1482.2,1584.8L1430.2,1768.5Z" style="fill:rgb(255,255,254);fill-rule:nonzero;"/>
        <path d="M1697.2,1451.7L1458.1,1423.8C1470.6,1439.3 1697.2,1451.7 1697.2,1451.7Z" style="fill:rgb(255,255,254);fill-rule:nonzero;"/>
    </g>
</svg>
